<svg width="1173" height="1096" viewBox="0 0 1173 1096" fill="none" xmlns="http://www.w3.org/2000/svg">
<path d="M1169.53 1052.2C1127.37 1073.81 1039.18 1095.49 927.77 1095.49C669.884 1095.49 476.975 932.57 476.975 630.989C476.975 329.407 671.094 150.361 955.018 150.361C1067.72 150.361 1141 174.706 1172.27 191.151L1142.45 287.569C1098.92 265.722 1035.15 249.597 959.049 249.597C744.534 249.597 601.927 386.644 601.927 626.958C601.927 852.358 730.829 995.048 952.277 995.048C1025.56 995.048 1098.83 980.133 1146.48 956.915L1169.53 1052.2Z" fill="#31535B"/>
<path d="M180.475 361.412C81.1578 361.412 0.302734 280.475 0.302734 180.834C0.302734 81.1936 81.1578 0.658203 180.475 0.658203C279.792 0.658203 360.81 81.5161 360.81 180.834C360.81 280.152 280.034 361.412 180.475 361.412ZM180.475 74.7432C121.949 74.7432 74.3062 122.386 74.3062 180.913C74.3062 239.44 121.868 287.407 180.475 287.407C239.081 287.407 286.726 239.681 286.726 180.913C286.726 122.144 239.081 74.7432 180.475 74.7432Z" fill="#31535B"/>
</svg>
