<svg width="3632" height="2313" viewBox="0 0 3632 2313" fill="none" xmlns="http://www.w3.org/2000/svg">
<path d="M2211.33 616.59C2223.58 630.536 2245.03 632.068 2259.14 619.653C2273.08 607.4 2274.53 585.956 2262.12 571.849L2010.28 284.052C1997.86 269.864 1976.5 268.655 1962.39 280.827C1948.45 293.081 1947 314.444 1959.25 328.632L2211.25 616.59H2211.33Z" fill="#31535B"/>
<path d="M2643.34 450.28C2661.97 450.119 2677.04 434.964 2676.88 416.261L2674.14 33.6607C2674.14 14.7967 2658.74 -0.116967 2640.04 0.0442638C2621.58 0.205494 2606.34 15.2805 2606.5 34.2251L2609.24 416.664C2609.24 435.367 2624.64 450.442 2643.34 450.28Z" fill="#31535B"/>
<path d="M3513.98 1455.88L3175.4 1277.8C3158.79 1269.09 3138.32 1275.46 3129.61 1291.99C3120.9 1308.43 3127.35 1328.91 3143.96 1337.61L3482.38 1515.85C3499.06 1524.4 3519.62 1518.19 3528.17 1501.42C3536.95 1485.14 3530.75 1464.58 3513.98 1455.88Z" fill="#31535B"/>
<path d="M3593.47 813.049L3213.61 857.469C3194.99 859.726 3181.77 876.575 3183.95 895.116C3185.96 913.738 3202.81 926.959 3221.43 924.702L3601.37 880.363C3619.99 878.106 3633.29 861.499 3631.03 842.716C3628.94 824.336 3612.17 810.873 3593.47 812.969V813.049Z" fill="#31535B"/>
<path d="M2845.12 1517.3C2838.91 1499.73 2819.49 1490.3 2801.91 1496.75C2784.26 1502.87 2775.07 1522.14 2781.19 1539.79L2908.48 1900.71C2914.69 1918.36 2934.04 1927.47 2951.61 1921.35C2969.35 1915.14 2978.54 1895.71 2972.17 1878.14L2845.12 1517.3Z" fill="#31535B"/>
<path d="M3034.65 581.362L3270.28 279.861C3281.81 265.108 3279.07 243.825 3264.48 232.378C3249.73 220.931 3228.44 223.511 3216.92 238.344L2981.36 539.925C2969.83 554.597 2972.49 575.88 2987.25 587.408C3002 598.855 3023.28 596.114 3034.73 581.442L3034.65 581.362Z" fill="#31535B"/>
<path d="M2641.65 497.359C2366.67 497.359 2143.05 721.147 2143.05 996.045C2143.05 1025.15 2146.03 1053.52 2150.87 1081.34C2190.85 1083.43 2229.47 1090.69 2265.91 1102.78C2256.23 1068.76 2250.75 1033.05 2250.75 996.045C2250.75 780.399 2426.17 605.061 2641.73 605.061C2857.29 605.061 3032.87 780.48 3032.87 996.045C3032.87 1211.61 2857.37 1387.03 2641.73 1387.03C2606.99 1387.03 2573.45 1382.03 2541.37 1373.49C2554.26 1409.84 2562.33 1448.22 2565.15 1488.2C2590.22 1492.07 2615.69 1494.73 2641.73 1494.73C2916.71 1494.73 3140.49 1270.94 3140.49 996.045C3140.49 721.147 2916.71 497.359 2641.73 497.359H2641.65Z" fill="#31535B"/>
<path d="M2565.23 1555.67C2566.2 1543.82 2566.6 1531.73 2566.6 1519.64C2566.6 1509.24 2565.71 1499 2564.99 1488.76C2562.17 1448.78 2554.1 1410.41 2541.21 1374.05C2496.22 1246.6 2394.25 1146.07 2265.83 1103.26C2229.39 1091.17 2190.78 1083.91 2150.79 1081.82C2143.05 1081.42 2135.39 1080.69 2127.57 1080.69C2046.23 1080.69 1968.44 1102.7 1900.56 1143.89C1887.91 1073.6 1859.85 1008.7 1820.75 951.786L2057.44 971.053C2076.22 972.665 2092.51 958.638 2094.04 939.936C2095.57 921.555 2081.7 905.029 2063.08 903.578L1760.13 878.749C1659.37 778.222 1516.84 718.324 1362.38 726.708C1108.93 739.365 907.797 923.974 873.133 1161.47C828.15 1145.75 781.877 1137.93 734.717 1137.93C492.552 1137.93 295.692 1334.87 295.692 1576.96C295.692 1581.47 295.853 1585.83 296.175 1590.5C173.642 1624.04 -0.163466 1695.62 0.0783771 1945.29C0.32022 2144.01 176.544 2305.64 392.993 2305.64L413.792 2305.16C548.498 2298.46 1106.35 2305.64 1106.35 2305.48L1106.51 2296.29C1107.48 2296.45 1108.45 2296.53 1109.41 2296.69L1109.82 2305.48L1109.66 2296.77C1183.82 2306.77 1355.61 2307.09 1755.14 2307.9C1755.14 2307.9 2055.91 2312.97 2273.81 2312.97H2274.21C2356.03 2312.97 2426.33 2312.25 2465.27 2310.31C2568.7 2305.24 2664.71 2255.25 2735.57 2169.64C2802.4 2089.11 2837.79 1986.16 2832.87 1887.25C2825.13 1732.87 2717.83 1602.59 2565.39 1555.51L2565.23 1555.67ZM2652.53 2101.12C2601.1 2163.11 2532.58 2199.31 2459.7 2202.94C2421.82 2204.87 2353.54 2205.43 2274.05 2205.43H2273.65C2056.47 2205.43 1756.91 2200.36 1756.02 2200.36C1506.92 2199.87 1129.16 2198.9 1109.41 2198.1L1108.04 2222.44L1107.64 2197.94C1107.64 2197.94 849.674 2194.63 641.286 2194.63C541.163 2194.63 452.325 2195.36 408.31 2197.61L392.913 2198.02C235.795 2198.02 107.779 2084.59 107.618 1945.13C107.457 1779.14 198.39 1725.13 366.31 1683.61L404.36 1667.49L407.826 1629.28L405.972 1605.82C404.682 1596.31 403.231 1586.87 403.231 1576.96C403.231 1394.2 551.884 1245.55 734.637 1245.55C789.777 1245.55 843.869 1260.22 895.382 1289.16L977.125 1334.95L975.513 1241.28C971.804 1024.1 1144.08 845.293 1367.62 834.169L1389.39 833.604C1488.87 833.604 1580.04 867.946 1651.3 924.941C1654.77 930.02 1659.45 934.131 1665.25 936.631C1743.61 1005.31 1794.88 1102.78 1800.28 1212.98C1800.68 1220.64 1800.28 1228.14 1799.31 1247.56L1794.07 1386.38L1891.37 1287.31C1954.33 1223.3 2038.09 1188.07 2127.49 1188.07C2146.76 1188.07 2165.38 1190.57 2183.84 1193.79C2319.44 1217.25 2426.97 1322.78 2452.61 1457.65C2456.4 1477.72 2458.82 1498.28 2458.82 1519.4C2458.82 1542.05 2456.4 1564.14 2452.05 1585.5L2441.08 1639.68L2495.5 1649.27C2624.64 1672 2718.96 1772.05 2725.01 1892.57C2728.71 1964.88 2702.11 2040.9 2652.37 2100.96L2652.53 2101.12Z" fill="#31535B"/>
</svg>
