<svg width="3345" height="1715" viewBox="0 0 3345 1715" fill="none" xmlns="http://www.w3.org/2000/svg">
<path d="M3130.46 667.946C3130.86 660.933 3131.1 653.919 3131.1 646.664C3131.1 446.98 2968.59 284.379 2768.74 284.379C2706.91 284.379 2647.5 299.857 2594.7 328.959C2553.26 140.158 2381.79 0.371094 2177.6 0.371094L2155.43 0.935214C1975.34 9.96412 1829.02 125.567 1774.04 282.686C1672.95 178.128 1527.44 115.086 1367.91 122.825C1113.49 135.482 911.628 320.817 877.044 559.196C831.82 543.395 785.224 535.495 737.823 535.495C494.932 535.495 297.266 733.083 297.266 975.896C297.266 980.411 297.427 984.925 297.911 989.601C174.974 1023.3 0.36325 1094.97 0.766322 1345.68C0.92755 1545.04 177.715 1707.24 394.89 1707.24L415.769 1706.75C550.798 1699.82 1110.67 1707.16 1110.91 1707.16L1111.07 1697.97C1112.04 1698.13 1113 1698.29 1113.97 1698.37L1114.45 1707.08L1114.29 1698.37C1188.62 1708.45 1360.97 1708.69 1762.03 1709.5C1762.03 1709.5 2063.45 1714.57 2282.23 1714.57C2364.7 1714.57 2435.56 1713.85 2474.74 1711.83C2680.15 1701.59 2851.05 1506.51 2843.47 1292.8C2856.61 1292.8 2869.83 1292.8 2882.33 1292.8C2949.8 1292.8 3007.84 1292.15 3039.69 1290.54C3125.7 1286.26 3205.27 1244.91 3263.88 1174.13C3319.1 1107.54 3348.36 1022.41 3344.17 940.667C3338.12 815.149 3252.75 708.899 3130.54 667.865L3130.46 667.946ZM2735.85 1292.8C2742.87 1433.23 2630.33 1596.47 2469.34 1604.45C2327.46 1611.39 1764.21 1601.87 1762.92 1601.95C1513.09 1601.47 1134.2 1600.42 1114.05 1599.7L1112.68 1624.2L1112.2 1599.62C1112.2 1599.62 853.424 1596.31 644.149 1596.31C543.623 1596.31 454.544 1597.04 410.287 1599.29L394.81 1599.7C236.967 1599.7 108.467 1485.79 108.306 1345.68C108.064 1178.81 199.4 1124.55 368.045 1082.87L408.433 1066.19L409.804 1025.39L407.708 1005.08C406.418 995.486 404.886 985.812 404.886 975.896C404.886 792.416 554.184 643.116 737.823 643.116C793.044 643.116 847.459 657.788 899.294 686.89L981.037 732.68L979.425 639.086C975.717 421.021 1148.63 241.491 1373.23 230.286L1395.15 229.721C1500.03 229.721 1595.8 267.852 1668.76 330.41C1710.92 366.525 1745.58 410.622 1769.69 460.845C1791.7 506.716 1805.16 557.423 1807.82 611.032C1808.22 618.771 1807.82 626.268 1806.77 645.696L1801.53 784.355L1898.99 685.439C1962.11 621.189 2046.36 585.718 2135.92 585.718C2319.56 585.718 2468.78 734.937 2468.78 918.418C2468.78 941.232 2466.36 963.32 2462 984.845L2451.12 1038.94L2505.54 1048.45C2593.32 1063.93 2664.35 1115.36 2703.36 1184.29C2721.99 1217.02 2733.84 1253.37 2735.85 1292.23C2735.85 1292.39 2735.85 1292.63 2735.85 1292.8ZM3181 1105.44C3141.75 1152.77 3089.67 1180.42 3034.29 1183.08C2994.22 1185.09 2911.91 1185.5 2822.35 1185.09C2783.25 1076.91 2692.72 990.891 2574.94 954.614C2575.91 942.602 2576.4 930.591 2576.4 918.337C2576.4 675.524 2378.81 477.936 2135.84 477.936C2054.18 477.936 1975.98 500.105 1907.94 541.541C1900.69 501.234 1888.19 462.941 1871.91 426.584C1868.12 418.039 1862.88 410.38 1858.52 402.158C1866.91 243.99 1995.01 116.538 2160.59 108.315L2177.44 107.912C2347.85 107.912 2487.72 236.896 2495.94 401.271C2496.35 407.397 2495.94 413.363 2495.22 428.196L2489.57 567.338L2587.2 468.181C2635.65 419.006 2700.06 391.919 2768.58 391.919C2909.09 391.919 3023.32 506.151 3023.32 646.502C3023.32 663.996 3021.55 681.006 3018.24 697.451L3007.36 751.463L3061.69 761.057C3160.21 778.389 3232.11 854.328 3236.55 945.907C3239.37 1001.13 3219.05 1059.25 3180.92 1105.28L3181 1105.44Z" fill="#31535B"/>
</svg>
