<svg width="2889" height="2713" viewBox="0 0 2889 2713" fill="none" xmlns="http://www.w3.org/2000/svg">
<path d="M2614.34 846.94C2615.55 833.8 2616.2 820.821 2616.2 807.842C2616.2 562.449 2416.27 362.604 2170.8 362.604C2086.8 362.604 2006.43 385.821 1936.7 429.353C1893.49 175.899 1661.16 -13.7885 1389.17 1.2059C1130.31 14.1043 925.471 203.389 891.855 446.363C845.099 429.756 796.811 421.292 747.797 421.292C502.246 421.292 302.403 621.056 302.403 866.691C302.403 871.931 302.645 877.171 303.129 882.733C178.66 916.592 0.179641 988.581 0.582713 1242.84C0.743942 1431.8 157.861 1593.92 371.731 1604.08L437.27 1502.99C429.531 1503.15 420.745 1503.31 414.618 1503.71L398.657 1504.12C236.38 1504.12 104.253 1386.82 104.091 1242.6C103.93 1070.89 197.765 1015.18 370.844 972.217L409.781 957.302L410.91 917.963L408.976 896.841C407.605 886.845 406.073 876.768 406.073 866.45C406.073 677.971 559.401 524.721 747.716 524.721C804.55 524.721 860.416 539.796 913.541 569.624L992.22 613.72L990.608 523.512C986.738 299.966 1164.09 115.921 1394.16 104.474L1416.74 103.829C1642.94 103.829 1828.76 275.378 1839.56 494.571C1839.96 502.391 1839.56 510.13 1838.59 530.283L1833.84 663.46L1927.27 568.414C1992.16 502.471 2078.5 466.114 2170.64 466.114C2359.04 466.114 2512.37 619.364 2512.37 807.681C2512.37 831.14 2509.87 853.793 2505.43 875.962L2494.87 928.04L2547.27 937.148C2680.69 960.527 2778.07 1063.96 2784.2 1188.51C2790.49 1313.62 2704.31 1455.75 2573.39 1496.94L2607.97 1593.44C2772.99 1538.54 2896.9 1367.96 2887.63 1183.51C2879.89 1026.23 2770.01 893.697 2614.1 846.779L2614.34 846.94Z" fill="#31535B"/>
<path d="M926.924 2007.16H927.085C755.215 1776.92 766.582 1380.21 758.359 1507.26C736.835 1838.83 606.24 2007.16 606.24 2007.16C595.357 2027.87 588.988 2050.69 588.988 2075.03C588.988 2162.82 668.474 2234.09 766.501 2234.09C864.528 2234.09 944.014 2162.82 944.014 2075.03C944.014 2050.69 937.646 2027.87 926.843 2007.16H926.924Z" fill="#31535B"/>
<path d="M1473 1694.77C1322.98 1493.64 1332.98 1147.32 1325.72 1258.16C1306.94 1547.81 1192.87 1694.77 1192.87 1694.77C1183.36 1712.83 1177.96 1732.74 1177.96 1754.03C1177.96 1830.69 1247.36 1892.85 1333.06 1892.85C1418.75 1892.85 1488 1830.69 1488 1754.03C1488 1732.74 1482.52 1712.83 1473 1694.77Z" fill="#31535B"/>
<path d="M1317.58 2441.27H1317.74C1201.01 2285.12 1208.75 2016.02 1203.19 2102.2C1188.6 2327.04 1100 2441.27 1100 2441.27C1092.67 2455.38 1088.39 2470.93 1088.39 2487.38C1088.39 2546.87 1142.32 2595.16 1208.83 2595.16C1275.34 2595.16 1329.35 2546.87 1329.35 2487.38C1329.35 2470.93 1325.08 2455.38 1317.58 2441.27Z" fill="#31535B"/>
<path d="M1024.79 1311.61C938.37 1195.84 944.174 996.32 940.063 1060.17C929.18 1226.96 863.479 1311.61 863.479 1311.61C857.997 1322.09 854.854 1333.53 854.854 1345.79C854.854 1389.96 894.838 1425.76 944.174 1425.76C993.51 1425.76 1033.41 1389.96 1033.41 1345.79C1033.41 1333.53 1030.27 1322.09 1024.79 1311.61Z" fill="#31535B"/>
<path d="M1945.73 1482.59C1945.73 1547.41 1893.33 1599.73 1828.67 1599.73C1764.02 1599.73 1711.7 1547.41 1711.7 1482.59C1711.7 1417.78 1764.02 1365.7 1828.67 1365.7C1893.33 1365.7 1945.73 1418.02 1945.73 1482.59Z" fill="#31535B"/>
<path d="M2451.18 1838.91C2451.18 1903.65 2398.7 1955.96 2334.13 1955.96C2269.55 1955.96 2217.32 1903.73 2217.32 1838.91C2217.32 1774.1 2269.64 1722.02 2334.13 1722.02C2398.62 1722.02 2451.18 1774.26 2451.18 1838.91Z" fill="#31535B"/>
<path d="M2014.49 2595.08C2014.49 2659.82 1962.09 2712.14 1897.44 2712.14C1832.79 2712.14 1780.55 2659.82 1780.55 2595.08C1780.55 2530.35 1832.79 2478.19 1897.44 2478.19C1962.09 2478.19 2014.49 2530.43 2014.49 2595.08Z" fill="#31535B"/>
<path d="M2385.72 1437.61C2385.72 1484.21 2347.99 1521.93 2301.48 1521.93C2254.96 1521.93 2217.24 1484.21 2217.24 1437.61C2217.24 1391.02 2254.8 1353.37 2301.48 1353.37C2348.15 1353.37 2385.72 1391.02 2385.72 1437.61Z" fill="#31535B"/>
<path d="M2027.31 2000.63C2027.31 2059.56 1979.51 2107.28 1920.74 2107.28C1861.97 2107.28 1814.25 2059.64 1814.25 2000.63C1814.25 1941.61 1861.81 1894.13 1920.74 1894.13C1979.67 1894.13 2027.31 1941.7 2027.31 2000.63Z" fill="#31535B"/>
<path d="M2440.78 2340.26C2440.78 2399.19 2392.98 2446.91 2334.13 2446.91C2275.28 2446.91 2227.72 2399.27 2227.72 2340.26C2227.72 2281.25 2275.28 2233.85 2334.13 2233.85C2392.98 2233.85 2440.78 2281.41 2440.78 2340.26Z" fill="#31535B"/>
</svg>
