<svg width="2888" height="2280" viewBox="0 0 2888 2280" fill="none" xmlns="http://www.w3.org/2000/svg">
<path d="M2614.06 846.757C2615.18 833.617 2615.83 820.638 2615.83 807.659C2615.83 562.185 2415.99 362.421 2170.43 362.421C2086.43 362.421 2006.14 385.638 1936.33 429.17C1893.04 175.716 1660.79 -13.9721 1388.88 1.0223C1130.11 13.8401 925.104 203.286 891.488 446.18C844.651 429.573 796.523 421.109 747.429 421.109C501.878 421.109 302.196 620.873 302.196 866.427C302.196 871.748 302.277 876.988 302.761 882.55C178.373 916.409 0.0537242 988.398 0.214953 1242.66C0.376182 1431.62 157.494 1593.82 371.445 1603.98L436.983 1502.88C429.244 1503.05 420.297 1503.21 414.251 1503.61L398.288 1504.01C236.011 1504.01 103.886 1386.72 103.805 1242.5C103.644 1070.71 197.236 1015 370.557 972.114L409.494 957.281L410.622 917.941L408.687 896.819C407.317 886.823 405.786 876.665 405.786 866.347C405.786 677.868 559.195 524.699 747.429 524.699C804.262 524.699 860.129 539.774 913.334 569.602L991.933 613.698L990.322 523.49C986.452 299.944 1163.88 115.899 1393.96 104.452L1416.37 103.807C1642.57 103.807 1828.39 275.356 1839.19 494.549C1839.67 502.449 1839.19 510.108 1838.06 530.262L1833.39 663.438L1926.98 568.393C1991.71 502.449 2078.21 466.092 2170.19 466.092C2358.67 466.092 2512 619.422 2512 807.739C2512 831.118 2509.5 853.851 2504.98 876.02L2494.5 928.098L2546.66 937.207C2680.16 960.586 2777.62 1064.02 2783.75 1188.57C2790.04 1313.68 2703.7 1455.81 2573.02 1497L2607.53 1593.5C2772.7 1538.6 2896.37 1368.02 2887.26 1183.57C2879.52 1026.29 2769.64 893.837 2613.73 846.918L2614.06 846.757Z" fill="#31535B"/>
<path d="M926.635 2006.97H926.796C754.765 1776.74 766.294 1380.03 758.152 1507.08C736.628 1838.65 605.87 2006.97 605.87 2006.97C594.987 2027.77 588.861 2050.59 588.861 2074.93C588.861 2162.72 668.186 2233.98 766.294 2233.98C864.401 2233.98 943.807 2162.8 943.807 2074.93C943.807 2050.59 937.598 2027.77 926.635 2006.97Z" fill="#31535B"/>
<path d="M1472.64 1694.59H1472.8C1322.61 1493.45 1332.53 1147.13 1325.43 1257.97C1306.57 1547.62 1192.66 1694.59 1192.66 1694.59C1183.15 1712.56 1177.59 1732.56 1177.59 1753.84C1177.59 1830.5 1247.08 1892.66 1332.53 1892.66C1417.98 1892.66 1487.63 1830.5 1487.63 1753.84C1487.63 1732.56 1481.99 1712.64 1472.64 1694.59Z" fill="#31535B"/>
<path d="M1895.54 2097.74C1758.17 1913.7 1767.44 1596.72 1760.67 1698.22C1743.66 1963.12 1639.19 2097.74 1639.19 2097.74C1630.48 2114.27 1625.56 2132.65 1625.56 2152C1625.56 2222.13 1688.92 2279.05 1767.44 2279.05C1845.96 2279.05 1909.24 2222.13 1909.24 2152C1909.24 2132.65 1904.25 2114.27 1895.54 2097.74Z" fill="#31535B"/>
<path d="M2066.04 1557.3C1979.7 1441.46 1985.43 1242.01 1981.31 1305.86C1970.35 1472.66 1904.81 1557.3 1904.81 1557.3C1899.09 1567.7 1896.02 1579.23 1896.02 1591.4C1896.02 1635.66 1936.01 1671.45 1985.34 1671.45C2034.68 1671.45 2074.67 1635.66 2074.67 1591.4C2074.67 1579.23 2071.6 1567.7 2065.96 1557.3H2066.04Z" fill="#31535B"/>
</svg>
