<svg width="2889" height="3013" viewBox="0 0 2889 3013" fill="none" xmlns="http://www.w3.org/2000/svg">
<path d="M2614.13 847.383C2615.5 834.404 2616.06 821.424 2616.06 808.284C2616.06 562.972 2416.14 363.046 2170.59 363.046C2086.67 363.046 2006.3 386.425 1936.48 429.796C1893.27 176.341 1661.1 -13.3455 1389.19 1.56837C1130.34 14.4668 925.256 203.832 891.801 446.806C845.206 430.119 796.758 421.734 747.664 421.734C502.274 421.734 302.35 621.498 302.35 866.891C302.35 872.293 302.671 877.533 303.074 883.176C178.847 917.115 0.207621 988.864 0.449464 1243.45C0.771922 1432.33 157.727 1594.52 371.758 1604.52L437.218 1503.59C429.559 1503.59 420.691 1503.91 414.484 1504.16L398.684 1504.64C236.488 1504.64 104.118 1387.26 104.118 1243.12C103.877 1071.49 197.712 1015.71 370.792 972.659L409.727 957.826L410.857 918.406L408.922 897.445C407.552 887.368 406.18 877.21 406.18 866.811C406.18 678.574 559.51 525.325 747.745 525.325C804.739 525.325 860.523 540.401 913.567 570.309L992.408 614.406L990.715 524.276C986.927 300.569 1164.28 116.605 1394.43 105.238L1416.92 104.595C1643.13 104.595 1828.86 276.063 1839.67 495.256C1840.23 503.237 1839.67 510.976 1838.7 531.13L1834.02 664.306L1927.37 569.018C1992.27 503.236 2078.69 466.718 2170.67 466.718C2359.07 466.718 2512.47 620.047 2512.47 808.365C2512.47 831.904 2509.97 854.638 2505.62 876.726L2495.06 928.805L2547.38 937.995C2680.8 961.292 2778.34 1064.64 2784.47 1189.35C2790.67 1314.55 2704.58 1456.59 2573.66 1497.87L2608.24 1594.12C2773.26 1539.22 2897.17 1368.72 2887.81 1184.27C2880.08 1026.99 2770.12 894.462 2614.21 847.464L2614.13 847.383Z" fill="#31535B"/>
<path d="M713.079 2679.69C713.079 2692.02 698.811 2702.34 681.156 2702.34C663.421 2702.34 649.152 2692.02 649.152 2679.69V1436.2C649.152 1423.7 663.421 1413.62 681.156 1413.62C698.811 1413.62 713.079 1423.7 713.079 1436.2V2679.69Z" fill="#31535B"/>
<path d="M1004.98 2870.58C1004.98 2883.24 990.636 2893.24 973.142 2893.24C955.407 2893.24 941.139 2883.16 941.139 2870.58V1627.17C941.139 1614.52 955.407 1604.36 973.142 1604.36C990.636 1604.36 1004.98 1614.52 1004.98 1627.17V2870.58Z" fill="#31535B"/>
<path d="M1444.25 2599.07C1444.25 2611.57 1429.98 2621.73 1412.49 2621.73C1394.83 2621.73 1380.57 2611.57 1380.57 2599.07V1355.66C1380.57 1343.17 1394.83 1333.09 1412.49 1333.09C1429.98 1333.09 1444.25 1343.17 1444.25 1355.66V2599.07Z" fill="#31535B"/>
<path d="M1794.04 2989.41C1794.04 3001.75 1779.69 3012.06 1762.2 3012.06C1744.46 3012.06 1730.19 3001.75 1730.19 2989.41V1745.92C1730.19 1733.42 1744.46 1723.35 1762.2 1723.35C1779.69 1723.35 1794.04 1733.42 1794.04 1745.92V2989.41Z" fill="#31535B"/>
<path d="M2124.96 2599.07C2124.96 2611.57 2110.53 2621.73 2093.04 2621.73C2075.3 2621.73 2061.03 2611.57 2061.03 2599.07V1355.66C2061.03 1343.17 2075.38 1333.09 2093.04 1333.09C2110.53 1333.09 2124.96 1343.17 2124.96 1355.66V2599.07Z" fill="#31535B"/>
</svg>
