<svg width="2889" height="2734" viewBox="0 0 2889 2734" fill="none" xmlns="http://www.w3.org/2000/svg">
<path d="M2614.55 847.152C2615.68 834.012 2616.25 821.032 2616.25 808.053C2616.25 562.579 2416.48 362.895 2171.01 362.895C2087.01 362.895 2006.48 386.113 1936.91 429.564C1893.54 176.11 1661.29 -13.5776 1389.38 1.41684C1130.68 14.2347 925.52 203.6 892.066 446.574C845.309 429.967 797.021 421.503 747.927 421.503C502.456 421.503 302.693 621.267 302.693 866.741C302.693 872.062 302.774 877.302 303.338 882.945C179.031 916.884 0.389601 988.712 0.792673 1243.05C1.03452 1432.02 158.071 1594.29 372.022 1604.29L437.561 1503.28C429.742 1503.44 420.874 1503.76 414.909 1504.01L398.947 1504.41C236.67 1504.41 104.463 1387.03 104.382 1243.05C104.14 1071.18 197.975 1015.48 371.055 972.508L409.991 957.675L411.12 918.335L409.266 897.294C407.815 887.218 406.364 877.06 406.364 866.741C406.364 678.424 559.692 525.174 748.008 525.174C805.002 525.174 860.787 540.33 913.831 570.077L992.591 614.174L990.979 524.045C987.19 300.499 1164.46 116.374 1394.53 104.927L1416.95 104.443C1643.31 104.443 1828.97 275.831 1839.93 495.185C1840.25 502.924 1839.77 510.825 1838.8 530.737L1834.13 663.913L1927.56 568.868C1992.37 502.844 2078.79 466.567 2170.93 466.567C2359.33 466.567 2512.66 619.816 2512.66 808.133C2512.66 831.673 2510.08 854.246 2505.64 876.415L2495.08 928.412L2547.4 937.683C2680.9 960.981 2778.28 1064.33 2784.41 1188.96C2790.62 1314.16 2704.52 1456.28 2573.6 1497.47L2608.27 1593.81C2773.28 1538.99 2897.11 1368.41 2887.92 1183.88C2880.18 1026.68 2770.22 894.07 2614.39 847.233L2614.55 847.152Z" fill="#31535B"/>
<path d="M586.617 1811.55H616.605V1782.05H586.617V1811.55ZM703.588 1851.46L724.79 1872.5L746.072 1851.46L724.79 1830.17L703.588 1851.46ZM544.616 1652.09L523.576 1673.46L544.858 1694.26L565.818 1673.46L544.616 1652.09ZM833.297 1811.63H863.285V1782.13H833.297V1811.63ZM614.912 1532.7H585.166V1562.53H614.912V1532.7ZM865.542 1532.7H835.554V1562.53H865.542V1532.7ZM745.266 1491.75L723.983 1470.63L702.782 1491.75L723.983 1512.87L745.266 1491.75ZM893.193 1717.96L874.087 1672.09L893.193 1628.55L858.045 1665.15H800.809L821.527 1633.15L784.767 1626.22L825.154 1585.18H874.975L829.427 1568.66L812.176 1523.03V1573.57L772.513 1614.93L766.548 1575.67L733.496 1598.08V1542.38L769.611 1504.81L726.644 1526.25L681.58 1506.5L717.696 1542.38V1598.08L684.16 1578.01L678.678 1615.01L638.129 1573.66V1523.11L622.329 1568.74L575.411 1586.8H625.876L666.264 1626.38L624.747 1635.49L650.382 1665.4H593.066L557.192 1628.8L574.444 1673.62L557.192 1718.12L593.066 1680.47H650.382L624.747 1713.76L666.264 1720.37L625.876 1760.68H575.411L622.329 1776.97L637.484 1821.95L638.129 1772.29L677.066 1733.27L684.16 1773.42L717.696 1748.51V1805.91L681.58 1841.06L725.515 1821.71L768.644 1841.06L733.496 1805.91V1748.51L766.548 1771.08L772.513 1731.82L812.901 1772.29L813.788 1821.95L828.379 1777.93L875.055 1760.6H825.235L784.847 1721.75L823.945 1710.38L800.89 1680.39H858.126L893.274 1718.04L893.193 1717.96ZM681.5 1642.34L706.087 1665.15H673.116L681.419 1642.34H681.5ZM683.193 1705.14L673.116 1680.31H706.087L683.193 1705.14ZM717.615 1725.45L695.285 1716.26L717.615 1691.92V1725.45ZM717.615 1653.63L695.285 1630.73L717.615 1620.9V1653.63ZM768.563 1642.34L777.109 1665.15H744.137L768.483 1642.34H768.563ZM734.302 1620.9L757.922 1630.73L734.302 1653.63V1620.9ZM734.302 1726.26V1691.92L757.922 1714.73L734.302 1726.26ZM767.273 1705.14L744.218 1680.31H779.365L767.273 1705.14ZM902.625 1651.45L881.424 1672.41L902.625 1693.53L923.907 1672.41L902.625 1651.45Z" fill="#31535B"/>
<path d="M1790.11 1652.26H1829.05V1613.88H1790.11V1652.26ZM1941.91 1703.93L1969.31 1730.94L1996.96 1703.93L1969.31 1676.28L1941.91 1703.93ZM1735.61 1445.4L1708.29 1473.05L1735.94 1499.98L1763.02 1473.05L1735.61 1445.4ZM2110.07 1652.26H2149V1613.88H2110.07V1652.26ZM1826.87 1290.46H1788.25V1329.31H1826.87V1290.46ZM2151.83 1290.46H2112.97V1329.31H2151.83V1290.46ZM1995.76 1237.33L1968.19 1210.08L1940.78 1237.33L1968.19 1264.82L1995.76 1237.33ZM2187.7 1530.85L2162.87 1471.19L2187.7 1414.93L2142.15 1462.49H2067.91L2094.75 1420.73L2047.11 1411.78L2099.67 1358.58H2164.24L2105.07 1337.05L2082.66 1277.96V1343.42L2031.31 1396.95L2023.49 1346.08L1980.76 1375.26V1302.95L2027.44 1254.18L1971.73 1282.07L1913.45 1256.44L1960.12 1302.95V1375.26L1916.75 1348.98L1909.5 1396.95L1856.94 1343.42V1277.96L1836.46 1337.05L1775.6 1360.51H1840.98L1893.38 1411.78L1839.61 1423.63L1872.66 1462.49H1798.41L1751.74 1414.93L1774.31 1473.05L1751.74 1530.77L1798.41 1481.92H1872.66L1839.61 1525.05L1893.38 1533.59L1840.98 1585.99H1775.6L1836.46 1607.03L1856.05 1665.48L1856.94 1600.99L1907.48 1550.44L1916.67 1602.68L1960.04 1570.35V1644.6L1913.37 1690.23L1970.2 1665.16L2026.31 1690.23L1980.76 1644.6V1570.35L2023.49 1599.45L2031.31 1548.75L2083.63 1600.99L2084.75 1665.48L2103.7 1608.48L2164.24 1585.91H2099.67L2047.11 1535.61L2097.65 1520.69L2067.91 1481.84H2142.15L2187.7 1530.69V1530.85ZM1913.29 1432.82L1945.05 1462.57H1902.4L1913.29 1432.82ZM1915.38 1514.08L1902.4 1482.08H1945.05L1915.38 1514.08ZM1959.96 1540.77L1931.18 1528.84L1959.96 1497.07V1540.69V1540.77ZM1959.96 1447.49L1931.18 1417.75L1959.96 1405.01V1447.41V1447.49ZM2026.23 1432.9L2037.27 1462.65H1994.39L2026.23 1432.9ZM1981.73 1405.09L2012.2 1417.83L1981.73 1447.58V1405.17V1405.09ZM1981.73 1541.73V1497.15L2012.2 1526.9L1981.73 1541.73ZM2024.37 1514.16L1994.39 1482.16H2040.09L2024.37 1514.16ZM2199.87 1444.59L2172.3 1471.84L2199.87 1499.17L2227.44 1471.84L2199.87 1444.59Z" fill="#31535B"/>
<path d="M857.562 2654.63H896.66V2616.17H857.562V2654.63ZM1009.36 2706.22L1036.93 2733.39L1064.5 2706.22L1036.93 2678.65L1009.36 2706.22ZM803.066 2447.61L775.738 2475.26L803.308 2502.26L830.637 2475.26L803.066 2447.61ZM1177.52 2654.63H1216.38V2616.17H1177.52V2654.63ZM894.322 2292.66H855.708V2331.52H894.322V2292.66ZM1219.28 2292.66H1180.42V2331.52H1219.28V2292.66ZM1063.21 2239.62L1035.64 2212.37L1008.23 2239.62L1035.64 2267.03L1063.21 2239.62ZM1255.23 2533.06L1230.24 2473.48L1255.23 2417.38L1209.52 2464.78H1135.28L1162.12 2423.02L1114.48 2414.15L1167.04 2360.78H1231.45L1172.28 2339.34L1149.95 2280.17V2345.71L1098.6 2399.32L1090.78 2348.37L1047.89 2377.55V2305.32L1094.65 2256.55L1038.94 2284.36L980.66 2258.72L1027.34 2305.24V2377.47L983.965 2351.11L976.71 2399.16L924.149 2345.55V2280.01L903.673 2339.18L842.809 2362.72H908.349L960.748 2413.99L906.817 2425.84L939.869 2464.7H865.623L818.947 2417.29L841.519 2475.26L818.947 2532.98L865.623 2484.12H939.869L906.817 2527.42L960.748 2535.8L908.349 2588.2H842.809L903.673 2609.24L923.263 2667.69L924.149 2603.03L974.695 2552.57L983.884 2604.81L1027.25 2572.48V2646.89L980.579 2692.43L1037.57 2667.44L1093.52 2692.43L1047.81 2646.89V2572.48L1090.7 2601.66L1098.52 2550.79L1150.84 2603.03L1151.97 2667.69L1170.99 2610.61L1231.37 2588.2H1166.96L1114.4 2537.81L1164.94 2522.9L1135.2 2484.04H1209.44L1255.15 2532.9L1255.23 2533.06ZM980.741 2435.03L1012.5 2464.78H969.857L980.741 2435.03ZM982.837 2516.37L969.857 2484.29H1012.5L982.837 2516.37ZM1027.42 2543.06L998.637 2531.12L1027.42 2499.44V2543.14V2543.06ZM1027.42 2449.62L998.637 2419.96L1027.42 2407.3V2449.62ZM1093.68 2435.03L1104.73 2464.78H1061.84L1093.68 2435.03ZM1049.18 2407.3L1079.65 2419.96L1049.18 2449.62V2407.3ZM1049.18 2543.94V2499.44L1079.65 2529.11L1049.18 2543.94ZM1091.67 2516.37L1061.76 2484.29H1107.47L1091.67 2516.37ZM1267.32 2446.8L1239.75 2473.97L1267.32 2501.38L1294.89 2473.97L1267.32 2446.8Z" fill="#31535B"/>
<path d="M1470.63 2157.79H1497.72V2130.95H1470.63V2157.79ZM1576.08 2193.34L1595.18 2212.37L1614.29 2193.34L1595.18 2174.32L1576.08 2193.34ZM1432.75 2013.89L1413.72 2033.24L1432.83 2051.78L1451.69 2033.24L1432.75 2013.89ZM1692.89 2157.79H1719.97V2130.95H1692.89V2157.79ZM1496.19 1906.43H1469.26V1933.36H1496.19V1906.43ZM1721.91 1906.43H1694.82V1933.36H1721.91V1906.43ZM1613.4 1869.43L1594.3 1850.41L1575.35 1869.43L1594.3 1888.38L1613.4 1869.43ZM1746.82 2073.23L1729.57 2031.79L1746.82 1992.77L1715.22 2025.58H1663.63L1682.25 1996.72L1649.2 1990.43L1685.71 1953.43H1730.54L1689.42 1938.52L1673.86 1897.57V1943.03L1638.23 1980.12L1632.75 1944.81L1603.08 1964.88V1914.82L1635.57 1881.04L1596.88 1900.31L1556.33 1882.57L1588.65 1914.9V1964.96L1558.5 1946.82L1553.59 1980.12L1517.07 1943.03V1897.57L1502.88 1938.52L1460.48 1954.8H1506.02L1542.38 1990.43L1505.06 1998.66L1527.95 2025.5H1476.36L1444.03 1992.69L1459.59 2033.08L1444.03 2073.15L1476.36 2039.29H1527.95L1505.06 2069.2L1542.38 2075.16L1506.02 2111.52H1460.48L1502.88 2126.11L1516.5 2166.74L1517.15 2121.92L1552.22 2086.85L1558.58 2123.13L1588.73 2100.56V2152.23L1556.41 2183.83L1595.99 2166.58L1634.85 2183.83L1603.25 2152.23V2100.56L1632.91 2120.87L1638.39 2085.56L1674.67 2121.84L1675.39 2166.66L1688.62 2127.08L1730.78 2111.44H1685.96L1649.44 2076.45L1684.58 2066.13L1663.87 2039.29H1715.46L1747.06 2073.15L1746.82 2073.23ZM1556.25 2005.11L1578.34 2025.66H1548.67L1556.25 2005.11ZM1557.7 2061.54L1548.67 2039.37H1578.34L1557.78 2061.54H1557.7ZM1588.57 2080L1568.58 2071.78L1588.57 2049.77V2080ZM1588.57 2015.18L1568.58 1994.63L1588.57 1985.76V2015.18ZM1634.6 2005.11L1642.34 2025.66H1612.6L1634.6 2005.11ZM1603.73 1985.76L1624.93 1994.63L1603.73 2015.18V1985.76ZM1603.73 2080.8V2049.77L1624.93 2070.41L1603.73 2080.8ZM1633.39 2061.54L1612.6 2039.37H1644.28L1633.39 2061.54ZM1755.36 2013.33L1736.26 2032.19L1755.36 2051.3L1774.47 2032.19L1755.36 2013.33Z" fill="#31535B"/>
<path d="M1204.45 1632.99H1223.55V1614.12H1204.45V1632.99ZM1278.69 1658.14L1292.15 1671.52L1305.62 1658.14L1292.15 1644.76L1278.69 1658.14ZM1177.92 1531.9L1164.54 1545.44L1178 1558.58L1191.23 1545.44L1177.84 1531.9H1177.92ZM1361 1632.99H1380.02V1614.12H1361V1632.99ZM1222.5 1456.2H1203.64V1475.14H1222.5V1456.2ZM1381.39 1456.2H1362.37V1475.14H1381.39V1456.2ZM1305.21 1430.16L1291.59 1416.86L1278.21 1430.16L1291.59 1443.54L1305.21 1430.16ZM1399.05 1573.66L1386.96 1544.47L1399.05 1516.98L1376.64 1540.28H1340.52L1353.5 1519.89L1330.2 1515.45L1355.92 1489.41H1387.52L1358.5 1478.85L1347.62 1450.15V1482.08L1322.55 1508.28L1318.76 1483.37L1297.8 1497.56V1462.33L1320.69 1438.46L1293.36 1452.17L1264.83 1439.59L1287.72 1462.41V1497.64L1266.44 1484.98L1262.97 1508.36L1237.26 1482.16V1450.23L1227.18 1478.93L1197.43 1490.54H1229.52L1255.15 1515.53L1228.79 1521.34L1245 1540.36H1208.72L1185.82 1517.06L1196.87 1545.44L1185.82 1573.66L1208.72 1549.71H1245L1228.79 1570.83L1255.15 1575.03L1229.52 1600.66H1197.43L1227.18 1610.82L1236.85 1639.44L1237.26 1607.92L1262 1583.33L1266.44 1608.8L1287.72 1593V1629.44L1264.83 1651.61L1292.64 1639.36L1320.05 1651.61L1297.72 1629.44V1593L1318.68 1607.27L1322.47 1582.36L1348.1 1607.92L1348.75 1639.44L1357.94 1611.63L1387.6 1600.66H1356L1330.29 1576.07L1355.11 1568.66L1340.52 1549.71H1376.64L1399.05 1573.66ZM1264.83 1525.69L1280.38 1540.28H1259.59L1264.83 1525.69ZM1265.96 1565.43L1259.59 1549.71H1280.38L1265.96 1565.43ZM1287.72 1578.41L1273.61 1572.69L1287.72 1557.21V1578.41ZM1287.72 1532.7L1273.61 1518.27L1287.72 1512.07V1532.7ZM1320.05 1525.61L1325.45 1540.2H1304.49L1320.05 1525.61ZM1298.28 1512.07L1313.19 1518.27L1298.28 1532.7V1512.07ZM1298.28 1578.82V1557.13L1313.19 1571.56L1298.28 1578.82ZM1319.24 1565.35L1304.57 1549.63H1326.98L1319.24 1565.35ZM1405.1 1531.41L1391.63 1544.55L1405.1 1557.94L1418.48 1544.55L1405.1 1531.41Z" fill="#31535B"/>
<path d="M2013.65 2193.91H2035.34V2172.47H2013.65V2193.91ZM2098.38 2222.69L2113.7 2237.84L2129.01 2222.69L2113.7 2207.29L2098.38 2222.69ZM1983.1 2078.31L1967.95 2093.78L1983.26 2108.7L1998.58 2093.78L1983.18 2078.31H1983.1ZM2192.05 2193.91H2213.82V2172.47H2192.05V2193.91ZM2034.05 1991.89H2012.53V2013.41H2034.05V1991.89ZM2215.43 1991.89H2193.75V2013.41H2215.43V1991.89ZM2128.21 1962.14L2112.89 1946.98L2097.57 1962.14L2112.89 1977.54L2128.21 1962.14ZM2235.51 2126.03L2221.56 2092.82L2235.51 2061.38L2210.03 2087.9H2168.51L2183.59 2064.68L2156.91 2059.68L2186.17 2029.78H2222.28L2189.23 2017.93L2176.74 1984.95V2021.47L2148.2 2051.46L2143.77 2022.92L2119.9 2039.21V1998.9L2145.86 1971.57L2114.91 1987.21L2082.34 1972.86L2108.46 1998.82V2039.13L2084.19 2024.54L2080.16 2051.38L2050.74 2021.39V1984.87L2039.45 2017.85L2005.43 2030.91H2041.95L2071.21 2059.6L2041.22 2066.21L2059.6 2087.82H2018.17L1992.21 2061.3L2004.71 2093.78L1992.21 2126.03L2018.17 2098.86H2059.6L2041.22 2122.89L2071.21 2127.64L2041.95 2156.75H2005.43L2039.45 2168.6L2050.33 2201.33L2050.74 2165.29L2079.03 2137.16L2084.19 2166.34L2108.46 2148.2V2189.72L2082.34 2215.11L2114.18 2201.16L2145.3 2215.11L2119.9 2189.72V2148.2L2143.77 2164.65L2148.2 2136.03L2177.38 2165.37L2178.03 2201.41L2188.59 2169.48L2222.36 2156.83H2186.25L2156.99 2128.69L2185.28 2120.55L2168.59 2098.94H2210.11L2235.59 2126.11L2235.51 2126.03ZM2082.26 2071.29L2099.99 2087.9H2076.13L2082.26 2071.29ZM2083.39 2116.76L2076.13 2098.86H2099.99L2083.3 2116.76H2083.39ZM2108.38 2131.59L2092.17 2124.98L2108.38 2107.25V2131.59ZM2108.38 2079.52L2092.17 2062.83L2108.38 2055.81V2079.52ZM2145.22 2071.29L2151.42 2087.9H2127.4L2145.14 2071.29H2145.22ZM2120.47 2055.81L2137.48 2062.83L2120.47 2079.52V2055.81ZM2120.47 2132.16V2107.17L2137.48 2123.77L2120.47 2132.16ZM2144.25 2116.76L2127.48 2098.86H2153.12L2144.33 2116.76H2144.25ZM2242.28 2077.82L2226.88 2092.98L2242.28 2108.38L2257.59 2092.98L2242.28 2077.82Z" fill="#31535B"/>
</svg>
