<svg width="2515" height="2436" viewBox="0 0 2515 2436" fill="none" xmlns="http://www.w3.org/2000/svg">
<path d="M1261.86 1878.92C921.587 1878.92 644.838 1602.17 644.838 1261.89C644.838 921.612 921.587 644.859 1261.86 644.859C1602.13 644.859 1878.96 921.612 1878.96 1261.89C1878.96 1602.17 1602.21 1878.92 1261.86 1878.92ZM1261.86 752.481C981 752.481 752.458 980.944 752.458 1261.89C752.458 1542.83 980.919 1771.3 1261.86 1771.3C1542.8 1771.3 1771.26 1542.83 1771.26 1261.89C1771.26 980.944 1542.8 752.481 1261.86 752.481Z" fill="#31535B"/>
<path d="M781.479 724.107C797.037 742.004 795.345 769.01 777.529 784.649C759.552 800.288 732.465 798.434 716.987 780.699L397.916 416.237C382.357 398.26 384.211 371.254 401.866 355.856C419.681 340.298 446.849 341.91 462.407 359.807L781.398 724.188L781.479 724.107Z" fill="#31535B"/>
<path d="M1306.44 527.002C1306.68 550.622 1287.58 569.97 1263.96 570.131C1240.26 570.292 1220.99 551.348 1220.75 527.485L1217.28 43.2295C1217.12 19.3673 1236.22 0.181019 1259.68 0.0197887C1283.46 -0.0608266 1302.65 18.8032 1302.89 42.6653L1306.28 527.002H1306.44Z" fill="#31535B"/>
<path d="M529.317 1144.11C553.018 1146.05 570.35 1166.77 568.577 1190.3C566.642 1213.93 546.085 1231.5 522.304 1229.65L39.5849 1190.3C15.9649 1188.29 -1.7702 1167.57 0.406391 1144.11C2.26052 1120.49 22.8171 1103 46.679 1104.61L529.317 1144.11Z" fill="#31535B"/>
<path d="M607.11 1602.89C627.183 1590.16 653.624 1596.2 666.281 1616.2C678.857 1636.11 673.052 1662.71 652.899 1675.37L243.458 1934.14C223.305 1946.88 196.863 1940.91 184.368 1920.92C171.631 1900.85 177.596 1874.41 197.75 1861.75L607.11 1602.89Z" fill="#31535B"/>
<path d="M972.858 1922.05C981.322 1899.8 1005.99 1888.68 1028.08 1896.98C1050.17 1905.36 1061.37 1929.95 1053.23 1952.28L882.57 2405.5C874.025 2427.67 849.437 2438.87 827.51 2430.49C805.019 2422.11 793.975 2397.52 802.278 2375.27L972.858 1922.05Z" fill="#31535B"/>
<path d="M1897.83 1693.58C1876.79 1682.54 1868.73 1656.74 1879.85 1635.78C1890.73 1614.82 1916.69 1606.68 1937.73 1617.81L2366.36 1843.13C2387.4 1854.33 2395.46 1880.21 2384.34 1900.93C2373.37 1922.05 2347.49 1929.95 2326.37 1919.06L1897.91 1693.58H1897.83Z" fill="#31535B"/>
<path d="M1995.93 1170.96C1972.4 1173.7 1951.11 1156.85 1948.37 1133.47C1945.55 1109.93 1962.32 1088.49 1985.94 1085.83L2466.96 1029.56C2490.58 1026.9 2511.95 1043.67 2514.45 1067.04C2517.35 1090.75 2500.5 1111.95 2476.88 1114.85L1995.85 1170.96H1995.93Z" fill="#31535B"/>
<path d="M1680.33 2377.93C1688.31 2400.26 1676.62 2424.77 1654.21 2432.75C1631.8 2440.41 1607.45 2428.88 1599.55 2406.55L1438.49 1949.62C1430.67 1927.37 1442.44 1902.78 1464.61 1895.04C1486.94 1887.14 1511.44 1898.75 1519.26 1921.16L1680.17 2377.93H1680.33Z" fill="#31535B"/>
<path d="M1759.57 736.035C1744.9 754.738 1718.14 758.124 1699.35 743.613C1680.65 729.022 1677.43 702.177 1691.94 683.474L1990.21 301.6C2004.8 282.978 2031.73 279.511 2050.35 294.183C2068.97 308.694 2072.28 335.7 2057.61 354.483L1759.49 736.035H1759.57Z" fill="#31535B"/>
</svg>
