<svg width="2888" height="3296" viewBox="0 0 2888 3296" fill="none" xmlns="http://www.w3.org/2000/svg">
<path d="M2614.11 846.897C2615.4 833.837 2615.97 820.859 2615.97 807.799C2615.97 562.325 2416.2 362.561 2170.57 362.561C2086.49 362.561 2006.2 385.778 1936.47 429.229C1893.34 175.856 1660.93 -13.832 1389.02 1.0012C1130.16 13.9803 925.322 203.265 891.625 446.239C844.949 429.552 796.499 421.168 747.647 421.168C502.176 421.168 302.253 620.852 302.253 866.406C302.253 871.727 302.334 876.967 302.898 882.61C178.51 916.468 0.0295412 988.377 0.351999 1242.72C0.674456 1431.68 157.631 1593.8 371.582 1604.04L437.12 1502.86C429.301 1503.11 420.676 1503.35 414.388 1503.67L398.425 1504.07C236.229 1504.07 104.023 1386.78 103.862 1242.56C103.862 1070.85 197.373 1015.06 370.613 972.093L409.631 957.34L410.759 918.081L408.744 896.879C407.293 886.882 406.004 876.886 406.004 866.487C406.004 678.089 559.171 524.839 747.647 524.839C804.4 524.839 860.185 539.995 913.471 569.742L992.07 613.838L990.459 523.791C986.67 300.164 1164.02 116.12 1394.17 104.753L1416.5 104.108C1642.87 104.108 1828.52 275.657 1839.41 494.85C1839.89 502.67 1839.41 510.409 1838.28 530.482L1833.6 663.578L1927.12 568.533C1991.93 502.589 2078.51 466.232 2170.41 466.232C2358.81 466.232 2512.22 619.562 2512.22 807.879C2512.22 831.419 2509.72 853.991 2505.2 876.16L2494.64 928.319L2546.96 937.428C2680.38 960.807 2777.84 1064.24 2784.05 1188.87C2790.34 1313.9 2704.16 1456.11 2573.4 1497.3L2607.99 1593.72C2773 1538.9 2896.75 1368.32 2887.48 1183.79C2879.74 1026.59 2769.86 894.138 2613.95 847.058L2614.11 846.897Z" fill="#31535B"/>
<path d="M579.165 1899.89H579.488C447.361 1722.94 456.147 1418.3 449.617 1515.76C433.172 1770.59 332.807 1899.89 332.807 1899.89C324.585 1915.77 319.668 1933.43 319.668 1951.97C319.668 2019.53 380.773 2074.18 456.148 2074.18C531.522 2074.18 592.466 2019.53 592.466 1951.97C592.466 1933.43 587.549 1915.77 579.165 1899.89Z" fill="#31535B"/>
<path d="M1199.01 1556.79C1085.26 1404.27 1092.84 1141.63 1087.28 1225.71C1073.01 1445.38 986.509 1556.79 986.509 1556.79C979.253 1570.5 975.141 1585.74 975.141 1601.78C975.141 1659.9 1027.78 1707.14 1092.84 1707.14C1157.89 1707.14 1210.21 1659.98 1210.21 1601.78C1210.21 1585.74 1206.02 1570.5 1199.01 1556.79Z" fill="#31535B"/>
<path d="M1842.63 1996.15H1842.71C1757.26 1881.92 1763.06 1684.97 1758.95 1748.01C1748.31 1912.71 1683.5 1996.15 1683.5 1996.15C1678.18 2006.47 1674.95 2017.67 1674.95 2029.93C1674.95 2073.46 1714.29 2108.77 1763.06 2108.77C1811.84 2108.77 1851.1 2073.46 1851.1 2029.93C1851.1 2017.75 1848.03 2006.55 1842.55 1996.15H1842.63Z" fill="#31535B"/>
<path d="M2160.09 1473.52H2160.25C2061.5 1341.31 2068.11 1113.25 2063.43 1186.29C2050.94 1376.86 1975.97 1473.52 1975.97 1473.52C1969.76 1485.45 1966.13 1498.59 1966.13 1512.54C1966.13 1563 2011.6 1603.96 2068.03 1603.96C2124.46 1603.96 2169.92 1563 2169.92 1512.54C2169.92 1498.59 2166.38 1485.45 2160.09 1473.52Z" fill="#31535B"/>
<path d="M1023.75 3295.02L1040.36 3269.3L1621.67 2372.7L1056.88 2371.73L1537.67 1604.04H1584.18L1258.74 2272.25L1864.88 2275.24L1023.75 3295.02Z" fill="#31535B"/>
</svg>
