<svg width="50" height="27" viewBox="0 0 50 27" fill="none" xmlns="http://www.w3.org/2000/svg">
<g clip-path="url(#clip0_14_2)">
<path d="M0 17.0959C2.15687 16.3814 4.38585 15.8529 6.63241 15.5087C11.8655 14.673 17.1907 15.102 22.2862 16.5311C27.0302 17.8159 31.0179 19.4049 36.0207 18.4631C37.7364 18.1467 39.446 17.6613 41.0283 16.9438C43.6876 15.7511 46.1596 13.6051 46.262 10.5132C46.3644 7.78361 44.736 5.22313 42.541 3.68987C40.735 2.4172 38.5169 1.82269 36.3031 1.92571C34.3426 2.00692 32.4063 2.61477 30.6379 3.48382C30.27 3.66381 29.9095 3.85713 29.5489 4.05349C33.2729 0.18519 39.043 -1.30019 43.9627 1.30817C48.8504 3.83229 51.5442 9.78169 49.0607 14.933C47.1759 18.8594 43.0561 21.0581 39.0187 22.1332C35.4401 23.1053 31.9585 23.2004 28.3544 22.309C25.1351 21.5284 22.1086 20.1618 18.9736 19.1679C12.8727 17.1122 6.39787 16.8177 0 17.0965L0 17.0959Z" fill="white"/>
<path d="M3.23584 12.974C4.88849 11.9934 6.70719 11.3177 8.55619 10.8014C11.4833 10.0032 14.5571 9.69779 17.5824 9.99838C18.8914 10.1396 20.209 10.3759 21.4731 10.7553C21.858 10.868 22.3682 11.0311 22.7355 11.1717C24.4621 11.8201 26.2056 12.4583 27.9734 12.937C32.0854 14.0448 37.0475 14.7678 40.9661 12.7207C41.3304 12.5213 41.6903 12.3013 42.0073 12.0298C41.5491 12.7661 40.8728 13.3406 40.1601 13.8261C38.6965 14.8091 36.97 15.346 35.2367 15.6072C30.6891 16.2423 26.1038 15.083 21.8986 13.4425C21.3665 13.2431 20.7562 13.0376 20.2077 12.8873C14.6747 11.3323 8.8089 11.7516 3.23645 12.9746L3.23584 12.974Z" fill="white"/>
<path d="M10.979 20.7397C14.5655 20.1616 18.349 20.7973 21.6288 22.3688C21.8815 22.49 22.3924 22.7215 22.65 22.8305C29.6914 25.9486 37.6323 25.4607 44.4774 21.9803C45.1695 21.63 45.8561 21.2597 46.5173 20.8355C45.9749 21.4088 45.3658 21.9197 44.7398 22.3997C38.154 27.4218 29.2866 28.3642 21.7021 25.0571C21.2124 24.8517 20.5525 24.542 20.0731 24.3141C17.2048 22.936 13.9425 21.953 10.9796 20.7397H10.979Z" fill="white"/>
</g>
<defs>
<clipPath id="clip0_14_2">
<rect width="50" height="26.9987" fill="white"/>
</clipPath>
</defs>
</svg>
