<svg width="51" height="22" viewBox="0 0 51 22" fill="none" xmlns="http://www.w3.org/2000/svg">
<path d="M48.8915 12.1347C47.8811 11.1832 46.471 10.8865 45.2844 11.3809C44.0318 11.9011 43.301 12.9401 43.3354 14.1525C43.3597 15.1701 43.9172 16.0715 44.6853 16.3481C45.2614 16.5501 45.8662 16.3739 46.3033 15.8708L45.184 14.9608C45.0794 14.9264 44.8301 14.6011 44.81 14.1296C44.7928 13.7026 44.9648 13.1179 45.8562 12.7409C46.4939 12.473 47.2921 12.6564 47.8811 13.2067C48.6765 13.9605 48.8872 15.1658 48.4386 16.4384C47.7908 18.2799 46.3147 18.0019 42.5572 16.8124C38.6147 15.5599 33.2119 13.8473 28.6934 18.171C27.3721 19.4364 24.4658 20.0126 20.9002 19.6958C17.9222 19.435 14.8167 18.8947 12.2701 16.7207C9.60454 14.4507 6.99198 13.555 4.93549 13.2411C6.75839 12.9903 9.04706 13.1207 11.4719 14.3532C15.056 16.169 19.3697 17.8801 22.9323 17.8801C24.9559 17.8801 26.7358 17.3269 28.0027 15.9311C30.7943 12.8556 34.1377 13.1967 37.077 13.4948C39.6996 13.7699 42.411 14.0393 43.3382 11.0871C43.8412 9.47774 43.4872 7.97583 42.3737 6.95689C41.2086 5.89495 39.3628 5.5467 37.9813 6.12567C36.4106 6.78061 36.2702 7.85258 36.2816 8.28395C36.3046 9.16532 36.9423 9.99795 37.8308 10.3204C38.5947 10.5855 39.3628 10.4035 39.8701 9.81311L38.7537 8.84859C38.7021 8.90305 38.6032 9.02344 38.3295 8.92742C38.0243 8.81993 37.762 8.50751 37.7563 8.24382C37.7463 7.86548 38.3109 7.59032 38.5517 7.48857C39.4144 7.13172 40.6296 7.36821 41.3763 8.05037C41.8635 8.49177 42.3522 9.30289 41.928 10.6486C41.3878 12.3812 40.0134 12.3182 37.226 12.033C34.2595 11.732 30.1996 11.3107 26.9106 14.9451C23.8853 18.2785 16.3616 15.1844 12.1425 13.039C10.4587 12.1835 8.83783 11.8037 7.35601 11.6991C8.80344 11.6432 10.4071 11.8911 12.0967 12.7123C15.0933 14.1712 17.6041 14.594 19.6362 14.4951C22.5984 14.3532 24.5345 13.0978 25.4617 12.3182C26.8963 11.1158 26.8619 9.08506 26.1109 7.77806C25.4474 6.6502 24.0416 5.70723 22.071 6.43955C20.8228 6.90102 20.4545 8.10339 20.7368 9.04781C21.022 10.0195 22.0194 10.8507 23.6088 10.4867L23.3451 9.31722C22.468 9.50639 22.0151 9.12808 21.889 8.70244C21.7701 8.30834 21.9091 7.78093 22.4895 7.56596C24.0415 6.97982 24.8126 7.9443 25.0634 8.38426C25.5864 9.27423 25.5864 10.6472 24.6893 11.3995C23.3092 12.5561 19.3682 14.9092 12.6241 11.6288C5.86702 8.34559 0.204848 13.1379 0.150391 13.1881L0.227783 13.2769C0.194822 13.297 0.161855 13.3156 0.150391 13.3228L0.852594 14.4521V14.604C1.04893 14.5495 6.37862 13.7857 11.3113 17.8485C14.2134 20.2461 17.5525 20.8839 20.7712 21.1677C21.4548 21.2293 22.1183 21.2551 22.7561 21.2551C25.8659 21.2551 28.3437 20.55 29.7138 19.2387C33.6061 15.5212 38.126 16.9615 42.1115 18.224C45.3288 19.2387 48.6521 20.3021 49.833 16.9328C50.4779 15.0941 50.1282 13.2984 48.8915 12.1376V12.1347Z" fill="white"/>
<path d="M15.309 7.75922C15.3448 7.72483 15.3835 7.68039 15.4208 7.6374C14.6713 7.65316 13.5964 7.12722 12.8182 6.36194C11.5671 5.13089 10.8205 3.42261 11.0197 3.69633C11.7377 4.68948 12.3597 5.57947 13.1808 6.18997C14.2485 6.98535 15.5196 7.21034 15.693 7.29633C16.4655 6.17277 16.7406 4.36275 15.0008 3.43266C14.2026 3.03283 13.3714 3.74794 12.3754 3.28218C11.3364 2.89094 10.607 1.85767 10.7388 0.595093L10.6657 0.523438C10.2917 1.79318 9.71704 4.95463 10.329 6.33759C11.3909 8.8312 13.9676 9.05046 15.3061 7.75922H15.309Z" fill="white"/>
</svg>
